<svg width="122" height="99" xmlns="http://www.w3.org/2000/svg" xmlns:xlink="http://www.w3.org/1999/xlink" xml:space="preserve" overflow="hidden"><defs><clipPath id="clip0"><rect x="928" y="119" width="122" height="99"/></clipPath></defs><g clip-path="url(#clip0)" transform="translate(-928 -119)"><path d="M133.276 269.79 133.276 224.212 153.082 224.212C157.352 224.212 160.652 225.452 162.985 227.934 165.317 230.416 166.484 233.745 166.484 237.925 166.484 242.104 165.317 245.434 162.985 247.916 160.652 250.397 157.351 251.637 153.082 251.637L140.737 251.637 140.737 269.79 133.276 269.79 133.276 269.79ZM140.737 245.173 152.62 245.173C154.512 245.173 155.988 244.683 157.044 243.703 158.1 242.724 158.628 241.32 158.628 239.492L158.628 236.357C158.628 234.528 158.099 233.125 157.044 232.145 155.988 231.165 154.512 230.676 152.62 230.676L140.737 230.676 140.737 245.173 140.737 245.173ZM195.203 235.835 202.135 235.835 187.677 276.517C187.281 277.648 186.829 278.617 186.324 279.423 185.818 280.228 185.223 280.881 184.541 281.381 183.859 281.882 183.035 282.252 182.066 282.491 181.098 282.731 179.953 282.851 178.633 282.851L174.473 282.851 174.473 277.039 180.283 277.039 182.263 271.293 169.785 235.835 176.981 235.835 183.848 255.817 185.829 263.196 186.158 263.196 188.337 255.817 195.203 235.835 195.203 235.835ZM229.274 264.175 228.945 264.175C228.196 266.177 226.975 267.745 225.28 268.877 223.586 270.009 221.594 270.574 219.304 270.574 214.947 270.574 211.58 269.018 209.204 265.906 206.827 262.792 205.639 258.429 205.639 252.813 205.639 247.197 206.826 242.833 209.204 239.721 211.581 236.608 214.947 235.052 219.304 235.052 221.593 235.052 223.585 235.607 225.28 236.717 226.974 237.827 228.195 239.405 228.945 241.451L229.274 241.451 229.274 221.47 236.47 221.47 236.47 269.79 229.274 269.79 229.274 264.175ZM221.484 264.436C223.684 264.436 225.533 263.903 227.03 262.836 228.526 261.77 229.274 260.366 229.274 258.625L229.274 247.002C229.274 245.26 228.526 243.856 227.03 242.789 225.533 241.722 223.684 241.19 221.484 241.19 218.976 241.19 216.973 241.985 215.476 243.573 213.979 245.163 213.231 247.262 213.231 249.875L213.231 255.752C213.231 258.364 213.979 260.465 215.476 262.053 216.972 263.641 218.975 264.435 221.484 264.436L221.484 264.436ZM271.923 269.79C270.031 269.79 268.578 269.257 267.566 268.19 266.553 267.124 265.936 265.764 265.717 264.11L265.387 264.11C264.726 266.243 263.516 267.853 261.756 268.942 259.995 270.03 257.86 270.574 255.352 270.574 251.787 270.574 249.047 269.66 247.132 267.832 245.218 266.003 244.261 263.544 244.261 260.454 244.261 257.057 245.503 254.511 247.99 252.814 250.477 251.116 254.12 250.267 258.917 250.267L265.123 250.267 265.123 247.393C265.123 245.303 264.551 243.693 263.407 242.56 262.263 241.429 260.481 240.863 258.059 240.863 256.036 240.863 254.384 241.299 253.109 242.169 251.832 243.04 250.753 244.15 249.873 245.499L245.582 241.646C246.727 239.731 248.333 238.152 250.402 236.913 252.47 235.672 255.177 235.052 258.523 235.052 262.968 235.052 266.379 236.076 268.756 238.121 271.133 240.167 272.321 243.106 272.321 246.937L272.321 263.98 275.952 263.98 275.952 269.791 271.923 269.791 271.923 269.79ZM257.398 265.154C259.643 265.154 261.491 264.665 262.943 263.685 264.395 262.705 265.121 261.389 265.121 259.734L265.121 254.838 259.048 254.838C254.075 254.838 251.587 256.362 251.587 259.408L251.587 260.583C251.587 262.108 252.105 263.25 253.139 264.012 254.175 264.773 255.594 265.154 257.398 265.154ZM283.015 269.79 283.015 235.835 290.211 235.835 290.211 241.451 290.54 241.451C291.288 239.623 292.422 238.099 293.94 236.88 295.459 235.661 297.538 235.051 300.179 235.051 303.701 235.051 306.44 236.194 308.399 238.479 310.358 240.764 311.337 244.019 311.337 248.241L311.337 269.789 304.14 269.789 304.14 249.155C304.14 243.844 301.983 241.189 297.67 241.189 296.746 241.189 295.832 241.309 294.93 241.549 294.028 241.787 293.225 242.147 292.521 242.626 291.825 243.096 291.248 243.722 290.838 244.453 290.419 245.195 290.211 246.065 290.211 247.065L290.211 269.789 283.015 269.789ZM330.813 269.79C328.305 269.79 326.412 269.149 325.136 267.864 323.859 266.581 323.221 264.763 323.221 262.412L323.221 241.646 317.874 241.646 317.874 235.835 320.779 235.835C321.966 235.835 322.791 235.574 323.255 235.052 323.717 234.529 323.947 233.679 323.947 232.505L323.947 226.562 330.417 226.562 330.417 235.835 337.614 235.835 337.614 241.646 330.417 241.646 330.417 263.979 337.085 263.979 337.085 269.79 330.813 269.79 330.813 269.79ZM349.034 229.763C347.538 229.763 346.448 229.415 345.766 228.719 345.084 228.022 344.742 227.13 344.742 226.042L344.742 224.931C344.742 223.843 345.084 222.95 345.766 222.254 346.448 221.558 347.538 221.21 349.034 221.21 350.531 221.21 351.609 221.558 352.27 222.254 352.93 222.95 353.259 223.843 353.259 224.931L353.259 226.041C353.259 227.13 352.93 228.022 352.27 228.718 351.609 229.414 350.531 229.763 349.034 229.763ZM345.403 235.835 352.599 235.835 352.599 269.79 345.403 269.79 345.403 235.835ZM376.169 270.574C373.704 270.574 371.503 270.162 369.566 269.334 367.63 268.507 366.001 267.32 364.681 265.775 363.36 264.229 362.347 262.357 361.643 260.159 360.939 257.96 360.587 255.511 360.587 252.813 360.587 250.113 360.939 247.665 361.643 245.467 362.347 243.269 363.36 241.396 364.681 239.851 366.001 238.305 367.63 237.12 369.566 236.292 371.503 235.465 373.704 235.052 376.169 235.052 379.602 235.052 382.419 235.814 384.62 237.337 386.82 238.862 388.426 240.885 389.439 243.411L383.498 246.153C383.013 244.586 382.166 243.335 380.956 242.399 379.745 241.463 378.15 240.994 376.169 240.994 373.528 240.994 371.537 241.81 370.195 243.444 368.852 245.076 368.18 247.197 368.18 249.81L368.18 255.883C368.18 258.495 368.851 260.617 370.195 262.25 371.537 263.882 373.528 264.698 376.169 264.698 378.282 264.698 379.965 264.186 381.219 263.164 382.474 262.141 383.475 260.78 384.223 259.083L389.703 261.957C388.558 264.743 386.842 266.875 384.554 268.356 382.265 269.834 379.469 270.574 376.169 270.574L376.169 270.574ZM441.462 269.79 437.303 257.449 420.071 257.449 416.045 269.79 408.452 269.79 424.165 224.212 433.54 224.212 449.253 269.79C449.253 269.79 441.462 269.79 441.462 269.79ZM428.853 231.002 428.523 231.002 421.854 251.115 435.454 251.115 428.853 231.002 428.853 231.002ZM454.403 269.79 454.403 263.783 460.674 263.783 460.674 230.219 454.403 230.219 454.403 224.212 474.473 224.212 474.473 230.219 468.135 230.219 468.135 263.783 474.473 263.783 474.473 269.79C474.473 269.79 454.403 269.79 454.403 269.79Z" fill="#131A1B" transform="matrix(1.00672 0 0 1 928 -74.5649)"/><path d="M108.221 268.278 69.5158 214.657C68.2971 212.983 65.4892 212.983 64.2826 214.657L25.5776 268.278C25.184 268.826 24.9723 269.485 24.9723 270.16 24.9743 271.551 25.8643 272.785 27.1838 273.225L65.8888 285.884 65.8948 285.884C66.5441 286.096 67.2453 286.096 67.8946 285.884L67.9006 285.884 106.606 273.226C107.585 272.909 108.353 272.14 108.666 271.159 108.99 270.181 108.82 269.108 108.212 268.277L108.221 268.277 108.221 268.278ZM66.9017 222.046 82.4154 243.539 67.9085 238.796C67.7967 238.76 67.6778 238.766 67.5659 238.739 67.456 238.712 67.3442 238.694 67.2323 238.684 67.1204 238.669 67.0145 238.626 66.9027 238.626 66.7908 238.626 66.6869 238.669 66.575 238.684 66.4632 238.696 66.3513 238.714 66.2424 238.739 66.1275 238.76 66.0087 238.76 65.9058 238.796L51.4858 243.511 51.3949 243.541 66.9087 222.044 66.9027 222.044 66.9027 222.046ZM44.982 252.417 61.8713 246.89 63.6742 246.302 63.6742 278.381 33.3919 268.474 44.982 252.417 44.982 252.417ZM70.1311 278.375 70.1311 246.302 88.8223 252.417 100.412 268.465 70.1281 278.375C70.1281 278.375 70.1311 278.375 70.1311 278.375Z" fill="#C425E3" transform="matrix(1.00672 0 0 1 928 -74.5649)"/></g></svg>