<svg xmlns="http://www.w3.org/2000/svg" viewBox="0 0 18 18">
<g><path d="M11.52 1.59c.44 0 .83.33.97.81s.96 3.45.96 3.45v5.9h-2.97l.06-10.17h.98Z" fill-rule="evenodd" fill="#fff" opacity="0.5"></path><path d="M15.88 6.2a.37.37 0 0 0-.37-.37h-1.75c-1.23 0-2.23 1-2.23 2.23v3.7h2.12c1.23 0 2.23-1 2.23-2.23V6.2Z" fill="#fff" opacity="1"></path><path d="M11.52 1.59c-.34 0-.61.27-.61.61l-.06 11.23a2.97 2.97 0 0 1-2.97 2.97H2.49c-.26 0-.43-.25-.35-.49L6.46 3.58a2.973 2.973 0 0 1 2.8-1.99h2.27Z" fill="#fff" fill-rule="evenodd"></path><path d="M0 0h18v18H0z" fill="none"></path></g>
</svg>
