<svg xmlns="http://www.w3.org/2000/svg" viewBox="0 0 18 18">
	<g>
		<path d="m16.62 4.541-2.765-1.597a.194.194 0 0 0-.291.168v.822H7.406v1.55h6.158v.822c0 .149.161.242.291.168l2.765-1.597a.194.194 0 0 0 0-.336Z" fill="#fff"></path>
		<path d="M4.495 9.616H2.903V4.982A1.07 1.07 0 0 1 3.97 3.909h5.486v1.592h-4.96v4.115Z" fill="#fff"></path>
		<circle cx="9.455" cy="4.603" r="2.607" fill="#fff"></circle>
		<path d="M9.455 14.4H3.971a1.07 1.07 0 0 1-1.069-1.071v-4.64h1.592v4.115h4.96V14.4Z" fill="#fff"></path>
		<circle cx="9.455" cy="13.397" r="2.607" fill="#fff"></circle>
		<path d="M5.008 12.097H1.696c-.272 0-.453-.301-.405-.673l.584-4.534c.048-.372.307-.673.578-.673h3.312c.272 0 .453.301.405.673l-.584 4.534c-.048.372-.307.673-.578.673Z" fill="#fff"></path>
		<path d="M.362 3.138A.362.362 0 0 1 0 2.777V.361C0 .162.162 0 .362 0h2.266a.362.362 0 1 1 0 .722H.724v2.053a.362.362 0 0 1-.361.362H.362ZM18 2.777V.361A.362.362 0 0 0 17.638 0h-2.266a.362.362 0 1 0 0 .722h1.904v2.053a.362.362 0 0 0 .724 0ZM2.99 17.639a.362.362 0 0 0-.362-.361H.724v-2.053a.362.362 0 0 0-.724 0v2.415c0 .199.163.36.362.36h2.266c.2 0 .362-.162.362-.361ZM18 17.64v-2.415a.362.362 0 0 0-.724 0v2.053h-1.904a.362.362 0 1 0 0 .723h2.266a.362.362 0 0 0 .362-.36Z" fill="#fff"></path>
	</g>
</svg>