<?xml version="1.0" encoding="utf-8"?>
<!DOCTYPE svg PUBLIC "-//W3C//DTD SVG 1.1//EN" "http://www.w3.org/Graphics/SVG/1.1/DTD/svg11.dtd">
<svg xmlns="http://www.w3.org/2000/svg" xmlns:xlink="http://www.w3.org/1999/xlink" viewBox="0 0 18 18">
	<g>
		<path d="M18 16.278H0l3.332-3.149a.584.584 0 0 1 .4-.16H14.68a.588.588 0 0 1 .438.2L18 16.278Z" fill="#ffffff"></path>
		<path d="M0 16.278h18v.41a.586.586 0 0 1-.586.586H.586A.586.586 0 0 1 0 16.688v-.41Z" fill="#ffffff" opacity="0.5"></path>
		<path d="M17.43 8.21a3.78 3.78 0 0 0-3.29-3.64A4.77 4.77 0 0 0 9.22 0a4.91 4.91 0 0 0-4.68 3.19 4.52 4.52 0 0 0-4 4.35A4.6 4.6 0 0 0 5.32 12h8.31a3.84 3.84 0 0 0 3.8-3.79Z" fill="#ffffff"></path>
		<path d="M6.36 6.46 9 3.87a.3.3 0 0 1 .43 0L12 6.46a.13.13 0 0 1-.1.23h-1.62a.15.15 0 0 0-.14.14l-.02 5.072a.11.11 0 0 1-.11.11H8.27a.11.11 0 0 1-.11-.11l.02-5.072a.14.14 0 0 0-.13-.14h-1.6a.13.13 0 0 1-.09-.23Z" fill="#17a2b8"></path>
	</g>
</svg>