<?xml version="1.0" encoding="utf-8"?>
<!DOCTYPE svg PUBLIC "-//W3C//DTD SVG 1.1//EN" "http://www.w3.org/Graphics/SVG/1.1/DTD/svg11.dtd">
<svg xmlns="http://www.w3.org/2000/svg" xmlns:xlink="http://www.w3.org/1999/xlink" viewBox="0 0 18 18">
	<g>
		<rect style="fill:none;stroke:#FFFFFF;stroke-width:2;stroke-miterlimit:10;" width="18" height="12" x="-.12" y=".21" rx=".6"></rect>
		<path fill="#FFFFFF" opacity="0.9" d="M11.88 4.46v3.49l-3 1.76v-3.5l3-1.75z"></path>
		<path fill="#FFFFFF" opacity="0.6" d="m11.88 4.46-3 1.76-3-1.76 3-1.75 3 1.75z"></path>
		<path fill="#FFFFFF" opacity="0.4" d="M8.88 6.22v3.49l-3-1.76V4.46l3 1.76z"></path>
		<path fill="#FFFFFF" opacity="0.3" d="m5.88 7.95 3-1.74v3.5l-3-1.76z"></path>
		<path fill="#FFFFFF" opacity="0.6" d="m11.88 7.95-3-1.74v3.5l3-1.76z"></path>
		<path fill="#FFFFFF" d="M12.49 15.84c-1.78-.28-1.85-1.56-1.85-3.63H7.11c0 2.07-.06 3.35-1.84 3.63a1 1 0 0 0-.89 1h9a1 1 0 0 0-.89-1z"></path>
	</g>
</svg>