<svg viewBox="0 0 20 19" xmlns="http://www.w3.org/2000/svg">
	<g transform="matrix(1, 0, 0, 1, 1, 0)">
		<path fill="fill:none;stroke:#fff;" d="M 0.9 2.476 L 14.623 2.476 C 15.084 2.444 15.486 2.789 15.523 3.25 L 15.455 7.709 C 11.659 6.381 8.836 9.701 10.313 13.42 L 9.007 13.41 C 8.975 13.41 8.943 13.419 8.916 13.437 L 6.035 15.337 C 5.852 15.478 5.585 15.367 5.555 15.139 C 5.555 15.136 5.554 15.134 5.554 15.132 L 5.554 13.539 C 5.548 13.462 5.481 13.405 5.404 13.41 L 0.9 13.41 C 0.439 13.442 0.038 13.097 0 12.636 L 0 3.25 C 0.038 2.79 0.439 2.445 0.9 2.476 Z" style="fill:none;stroke:#fff;stroke-width:1.5"></path>
		<path fill="#fff" d="M11.031 6.661a1.025 1.025 0 1 1-1.025 1.025 1.025 1.025 0 0 1 1.025-1.025ZM6.737 7.7a1.025 1.025 0 1 0 1.025-1.03A1.025 1.025 0 0 0 6.737 7.7Zm-3.27 0a1.025 1.025 0 1 0 1.025-1.03A1.025 1.025 0 0 0 3.467 7.7Z"></path>
		<circle cx="13.926" cy="11.45" r="4.074" style="fill:none;stroke:#fff;stroke-width:1.5"></circle>
		<path fill="#fff" d="M 15.991 13.416 L 15.454 12.602 C 15.368 12.468 15.193 12.424 15.054 12.502 L 14.669 12.709 C 14.593 12.75 14.5 12.737 14.439 12.675 C 14.185 12.421 13.954 12.144 13.75 11.847 L 13.442 11.324 C 13.29 10.998 13.168 10.659 13.077 10.31 C 13.057 10.227 13.092 10.14 13.164 10.094 L 13.537 9.867 C 13.671 9.787 13.72 9.617 13.651 9.477 L 13.227 8.602 C 13.159 8.465 12.995 8.407 12.855 8.469 C 12.483 8.684 12.205 9.031 12.075 9.44 C 11.723 10.255 12.355 11.214 12.822 12.03 L 12.827 12.03 C 13.294 12.846 13.803 13.876 14.683 13.986 C 15.102 14.082 15.541 14.017 15.915 13.804 C 16.041 13.717 16.075 13.545 15.991 13.416 Z"></path>
	</g>
</svg>