<svg xmlns="http://www.w3.org/2000/svg" viewBox="0 0 48 48">

	<g>
		<path fill="#fff" fill-opacity="0.6" d="m12.899 21.235 26.938-3.98a1.597 1.597 0 0 0 1.323-1.17l2.78-10.06a1.595 1.595 0 0 0-1.74-2.012L16.498 7.81a7.185 7.185 0 0 0-5.777 5.193L7.013 26.438c.744-2.717 1.202-4.355 5.886-5.203Z"></path>
		<path fill="#fff" fill-opacity="0.8" d="M12.899 21.236c-3.901.706-4.87 1.962-5.514 3.931l-3.106 11.41s.992-3.633 5.796-4.41l18.352-2.673.136-.022a1.707 1.707 0 0 0 1.388-1.244l2.73-9.915-19.782 2.923Z"></path>
		<path fill="#fff" fill-rule="evenodd" d="M10.075 32.167c-4.06.657-5.393 3.346-5.71 4.165a5.629 5.629 0 0 0 4.638 7.59c.792.114 1.688.108 2.692-.04l4.613-.636a2.924 2.924 0 0 0 2.421-2.128l2.894-10.632-11.547 1.682h-.001Z" clip-rule="evenodd"></path>
	</g>

</svg>
